<svg width="800" height="800" viewBox="0 0 800 800" fill="none" xmlns="http://www.w3.org/2000/svg">
<path d="M551.288 213.074L401.61 329.885L248.511 213.074V213.106L248.696 213.264V376.83L399.885 496.165L551.288 381.438V213.074Z" fill="#EA4335"/>
<path d="M590.577 184.66L551.27 213.073V381.437L674.957 286.475V229.268C674.957 229.268 659.945 147.564 590.577 184.66Z" fill="#FBBC05"/>
<path d="M551.27 381.437V599.81H646.07C646.07 599.81 673.047 597.032 674.987 566.282V286.475L551.27 381.437Z" fill="#34A853"/>
<path d="M248.703 600.002V376.829L248.511 376.672L248.703 600.002Z" fill="#C5221F"/>
<path d="M248.503 213.102L209.412 184.846C140.045 147.751 125 229.424 125 229.424V286.628L248.503 376.668V213.102Z" fill="#C5221F"/>
<path d="M248.511 213.109V376.677L248.703 376.834V213.267L248.511 213.109Z" fill="#C5221F"/>
<path d="M125 286.67V566.477C126.911 597.26 153.918 600.007 153.918 600.007H248.719L248.503 376.677L125 286.67Z" fill="#4285F4"/>
</svg>
