<svg width="1351" height="1351" viewBox="0 0 1351 1351" fill="none" xmlns="http://www.w3.org/2000/svg">
<path fill-rule="evenodd" clip-rule="evenodd" d="M488.33 425.088C491.153 424.92 493.994 425.045 496.826 425.045C592.309 425.043 692.305 425.334 787.789 425.336C802.194 425.336 810.703 430.336 810.703 445.336C810.703 460.336 810.789 475.336 810.789 490.836C810.909 491.862 810.817 492.282 811.789 492.836C813.064 493.198 814.821 492.104 815.836 491.589C858.842 469.738 902.112 469.874 945.007 491.278C977.558 507.521 999.822 533.666 1013.02 567.405C1024.08 595.69 1026.81 625.101 1021.34 654.839C1013.22 698.915 991.156 734.439 953.382 760.016C936.812 770.287 919.573 778.067 900.741 781.874C896.016 782.829 894.972 784.417 896.676 789.223C902.128 804.599 907.542 820.026 912.025 835.704C928.559 893.522 890.63 947.229 835.852 953.174C831.237 953.675 826.532 953.421 821.869 953.421C709.056 953.407 596.242 953.479 483.428 953.306C438.488 953.236 401.059 920.282 394.863 875.793C392.64 859.834 394.852 844.305 399.881 829.04C424.735 753.6 449.508 678.133 474.271 602.663C483.355 574.978 492.216 547.218 501.445 519.581C503.769 512.623 503.375 506.355 500.09 499.881C491.423 482.803 482.991 465.606 474.412 448.484C469.107 437.897 476.234 425.809 488.33 425.088ZM955.904 602.954C946.807 558.933 904.104 532.956 859.5 543.569C847.136 546.399 836.883 552.957 827.607 561.368C824.999 563.733 824.431 566.223 825.478 569.39C826.941 573.812 828.394 578.239 829.75 582.694C843.743 628.691 858.897 674.314 873.967 719.964C875.172 723.611 877.027 724.731 880.551 723.986C894.213 721.099 907.276 716.583 918.431 707.998C953.411 681.08 964.611 645.092 955.904 602.954Z" fill="#2A2626"/>
<path d="M489.851 688.222C522.67 680.53 555.628 678.296 588.926 685.057C609.962 689.329 629.769 697.134 649.37 705.558C672.502 715.499 695.681 725.438 720.597 729.986C757.136 736.655 792.888 733.146 827.723 720.246C834.752 717.643 835.395 717.988 837.668 724.96C850.777 765.17 863.879 805.384 876.995 845.591C888.371 880.47 862.461 916.417 825.783 916.505C796.619 916.575 767.452 916.498 737.788 916.487C653.46 916.479 569.631 916.493 485.804 916.451C457.797 916.437 435.966 897.951 431.215 870.435C429.883 862.719 430.414 855.07 432.842 847.717C449.761 796.484 466.832 745.3 483.799 694.082C484.835 690.954 486.511 689.005 489.851 688.222Z" fill="#FF5411"/>
<rect x="751" y="854" width="104" height="17" rx="8.5" fill="#2A2626"/>
<rect x="719" y="757" width="104" height="17" rx="8.5" fill="#2A2626"/>
<rect x="687" y="660" width="104" height="17" rx="8.5" fill="#FF5411"/>
<rect x="655" y="563" width="104" height="17" rx="8.5" fill="#FF5411"/>
<path d="M650.952 355.801C687.434 320.53 690.94 283.641 662.431 242.649C651.713 227.238 639.24 213.047 630.466 196.283C622.541 181.142 618.543 165.585 625.554 148.888C628.988 140.708 634.157 134.208 642.517 131.268C645.209 132.836 645.162 134.866 644.388 136.689C635.688 157.16 644.139 173.558 657.331 188.104C669.664 201.702 683.608 213.832 695.91 227.456C717.824 251.724 727.224 279.402 716.072 311.956C706.367 340.289 668.737 368.243 641.731 366.468C641.778 360.596 647.693 359.81 650.952 355.801Z" fill="#FF5411"/>
<path d="M619.234 396.758C596.531 374.809 594.35 351.853 612.091 326.345C618.76 316.755 626.522 307.924 631.982 297.492C636.913 288.069 639.401 278.389 635.039 267.999C632.902 262.908 629.685 258.863 624.483 257.033C622.808 258.009 622.837 259.273 623.319 260.407C628.732 273.146 623.473 283.35 615.264 292.402C607.589 300.864 598.912 308.412 591.257 316.89C577.62 331.992 571.771 349.215 578.71 369.474C584.749 387.105 608.166 404.501 624.972 403.396C624.943 399.741 621.262 399.253 619.234 396.758Z" fill="#FF5411"/>
<path d="M650.952 355.801C687.434 320.53 690.94 283.641 662.431 242.649C651.713 227.238 639.24 213.047 630.466 196.283C622.541 181.142 618.543 165.585 625.554 148.888C628.988 140.708 634.157 134.208 642.517 131.268C645.209 132.836 645.162 134.866 644.388 136.689C635.688 157.16 644.139 173.558 657.331 188.104C669.664 201.702 683.608 213.832 695.91 227.456C717.824 251.724 727.224 279.402 716.072 311.956C706.367 340.289 668.737 368.243 641.731 366.468C641.778 360.596 647.693 359.81 650.952 355.801Z" fill="#FF5411"/>
<path d="M619.234 396.758C596.531 374.809 594.35 351.853 612.091 326.345C618.76 316.755 626.522 307.924 631.982 297.492C636.913 288.069 639.401 278.389 635.039 267.999C632.902 262.908 629.685 258.863 624.483 257.033C622.808 258.009 622.837 259.273 623.319 260.407C628.732 273.146 623.473 283.35 615.264 292.402C607.589 300.864 598.912 308.412 591.257 316.89C577.62 331.992 571.771 349.215 578.71 369.474C584.749 387.105 608.166 404.501 624.972 403.396C624.943 399.741 621.262 399.253 619.234 396.758Z" fill="#FF5411"/>
</svg>
